<svg width="18" height="19" viewBox="0 0 18 19" fill="none" xmlns="http://www.w3.org/2000/svg">
<path d="M18 8V17C18 18.1046 17.1046 19 16 19H2C0.89543 19 0 18.1046 0 17V8H18ZM6 10H4C3.44772 10 3 10.4477 3 11V12C3 12.5523 3.44772 13 4 13H6C6.55228 13 7 12.5523 7 12V11C7 10.4477 6.55228 10 6 10ZM3 1C3 0.447715 3.44772 0 4 0H5C5.55228 0 6 0.447715 6 1V2H12V1C12 0.447715 12.4477 0 13 0H14C14.5523 0 15 0.447715 15 1V2H16C17.1046 2 18 2.89543 18 4V6H0V4C0 2.89543 0.89543 2 2 2H3V1Z" fill="#B8BDCE"/>
</svg>
